<svg width="130" height="135" viewBox="0 0 130 135" fill="none" xmlns="http://www.w3.org/2000/svg">
<rect width="115" height="135" fill="#191516"/>
<rect y="88" width="115" height="37" fill="#191516"/>
<path d="M30.5518 103.513C30.446 103.407 30.332 103.261 30.21 103.074C30.0879 102.878 29.9699 102.679 29.856 102.476C29.8315 102.435 29.7664 102.325 29.6606 102.146C29.5549 101.967 29.4572 101.812 29.3677 101.682C29.2782 101.552 29.1927 101.446 29.1113 101.365C28.5661 100.819 27.9598 100.413 27.2925 100.144C26.6333 99.8755 25.9375 99.7412 25.2051 99.7412C24.1471 99.7412 23.1584 100.018 22.2388 100.571C21.3273 101.117 20.5949 101.914 20.0415 102.964C19.4963 104.014 19.2236 105.259 19.2236 106.699C19.2236 108.172 19.4881 109.462 20.0171 110.569C20.5542 111.667 21.311 112.518 22.2876 113.12C23.2723 113.714 24.4157 114.011 25.7178 114.011C26.8245 114.011 27.8052 113.783 28.6597 113.328C29.5223 112.864 30.1896 112.184 30.6616 111.289L31.2598 111.375L31.1499 113.682C30.2629 114.178 29.2375 114.577 28.0737 114.878C26.9181 115.171 25.8398 115.317 24.8389 115.317C23.2438 115.317 21.8034 114.988 20.5176 114.329C19.2318 113.669 18.2186 112.725 17.478 111.497C16.7375 110.268 16.3672 108.831 16.3672 107.188C16.3672 105.633 16.7456 104.217 17.5024 102.939C18.2593 101.662 19.3335 100.653 20.7251 99.9121C22.1167 99.1715 23.724 98.8013 25.5469 98.8013C27.2152 98.8013 28.9079 99.1349 30.625 99.8022L31.1255 103.489L30.5518 103.513ZM39.1089 103.696C40.1912 103.696 41.1759 103.932 42.063 104.404C42.9582 104.868 43.6662 105.535 44.187 106.406C44.7078 107.269 44.9683 108.274 44.9683 109.421C44.9683 110.569 44.7078 111.586 44.187 112.473C43.6662 113.352 42.9704 114.036 42.0996 114.524C41.2288 115.004 40.2767 115.244 39.2432 115.244C38.2178 115.244 37.2575 114.996 36.3623 114.5C35.4671 114.003 34.751 113.315 34.2139 112.437C33.6768 111.549 33.4082 110.549 33.4082 109.434C33.4082 108.319 33.6686 107.326 34.1895 106.455C34.7103 105.576 35.4061 104.897 36.2769 104.417C37.1558 103.936 38.0998 103.696 39.1089 103.696ZM39.4019 114.292C40.4354 114.292 41.2207 113.922 41.7578 113.181C42.2949 112.441 42.5635 111.468 42.5635 110.264C42.5635 109.222 42.417 108.266 42.124 107.395C41.8392 106.516 41.4282 105.816 40.8911 105.295C40.354 104.775 39.7355 104.514 39.0356 104.514C38.4172 104.514 37.8678 104.665 37.3877 104.966C36.9157 105.267 36.5413 105.731 36.2646 106.357C35.988 106.984 35.8496 107.769 35.8496 108.713C35.8496 109.641 35.9961 110.536 36.2891 111.399C36.582 112.253 36.9971 112.949 37.5342 113.486C38.0713 114.023 38.6938 114.292 39.4019 114.292ZM50.7544 112.131C50.7544 112.75 50.8521 113.214 51.0474 113.523C51.2427 113.824 51.4665 114.019 51.7188 114.109C51.971 114.198 52.3657 114.292 52.9028 114.39C52.9028 114.512 52.8988 114.634 52.8906 114.756C52.8825 114.878 52.8784 114.959 52.8784 115H46.5796V114.353C46.5959 114.345 46.7098 114.312 46.9214 114.255C47.3283 114.158 47.6619 114.044 47.9224 113.914C48.1828 113.775 48.3415 113.568 48.3984 113.291C48.4391 113.153 48.4635 113.014 48.4717 112.876C48.4798 112.729 48.4839 112.534 48.4839 112.29V106.138C48.3862 105.942 48.1909 105.771 47.8979 105.625C47.6131 105.47 47.3161 105.344 47.0068 105.247C46.6976 105.141 46.543 105.092 46.543 105.1L46.5796 104.685L49.9365 103.855L50.6567 103.806L50.791 105.796C51.2712 105.169 51.8368 104.665 52.4878 104.282C53.1388 103.892 53.8672 103.696 54.6729 103.696C55.4704 103.696 56.1296 103.859 56.6504 104.185C57.1712 104.51 57.57 105.002 57.8467 105.662C58.2373 105.23 58.6076 104.88 58.9575 104.612C59.3075 104.335 59.6981 104.119 60.1294 103.965C60.5607 103.802 61.049 103.721 61.5942 103.721C62.6603 103.721 63.5148 103.973 64.1577 104.478C64.8088 104.974 65.179 105.731 65.2686 106.748C65.3337 107.513 65.3662 108.282 65.3662 109.055V112.253C65.3662 112.66 65.3947 113.006 65.4517 113.291C65.4924 113.527 65.5941 113.714 65.7568 113.853C65.9277 113.991 66.0946 114.089 66.2573 114.146C66.4201 114.194 66.7049 114.276 67.1118 114.39C67.1118 114.512 67.1077 114.634 67.0996 114.756C67.0915 114.87 67.0874 114.951 67.0874 115H61.2158C61.2158 114.951 61.2118 114.87 61.2036 114.756C61.1955 114.634 61.1914 114.512 61.1914 114.39C61.2321 114.382 61.2769 114.369 61.3257 114.353C61.3826 114.337 61.4396 114.32 61.4966 114.304C61.9198 114.19 62.2575 114.068 62.5098 113.938C62.762 113.8 62.9207 113.592 62.9858 113.315C63.0509 112.99 63.0835 112.636 63.0835 112.253V107.407C63.0835 106.642 62.8882 106.052 62.4976 105.637C62.1069 105.214 61.5495 105.002 60.8252 105.002C60.3206 105.002 59.8201 105.153 59.3237 105.454C58.8273 105.747 58.3879 106.105 58.0054 106.528C58.0542 107.09 58.0786 107.993 58.0786 109.238V112.192C58.0786 112.656 58.103 113.014 58.1519 113.267C58.2007 113.56 58.3512 113.775 58.6035 113.914C58.8639 114.052 59.2057 114.178 59.6289 114.292C59.8568 114.365 59.9666 114.398 59.9585 114.39C59.9585 114.512 59.9544 114.634 59.9463 114.756C59.9382 114.878 59.9341 114.959 59.9341 115H53.8306C53.8306 114.951 53.8265 114.87 53.8184 114.756C53.8102 114.634 53.8062 114.512 53.8062 114.39C53.8387 114.382 54.034 114.345 54.3921 114.28C54.7583 114.207 55.0838 113.991 55.3687 113.633C55.6535 113.267 55.7959 112.791 55.7959 112.205V107.957C55.7959 107.004 55.6453 106.276 55.3442 105.771C55.0431 105.267 54.5182 105.015 53.7695 105.015C53.1836 105.015 52.6506 105.169 52.1704 105.479C51.6984 105.78 51.2264 106.195 50.7544 106.724V112.131ZM72.2266 116.758C72.2266 117.507 72.4015 118.044 72.7515 118.369C73.1095 118.703 73.6833 118.914 74.4727 119.004C74.4727 119.126 74.4686 119.244 74.4604 119.358C74.4523 119.48 74.4482 119.565 74.4482 119.614H68.0151C68.0151 119.565 68.0111 119.48 68.0029 119.358C67.9948 119.244 67.9907 119.126 67.9907 119.004C68.6336 118.914 69.1219 118.695 69.4556 118.345C69.7892 118.003 69.9561 117.511 69.9561 116.868V106.284C69.8177 106.04 69.5532 105.816 69.1626 105.613C68.7801 105.409 68.4017 105.238 68.0273 105.1L67.9297 105.063V104.648L71.2256 103.794H72.0557L72.1533 105.796C72.7555 105.129 73.3618 104.612 73.9722 104.246C74.5825 103.879 75.2783 103.696 76.0596 103.696C76.9792 103.696 77.797 103.92 78.5132 104.368C79.2293 104.807 79.7868 105.442 80.1855 106.272C80.5843 107.094 80.7837 108.062 80.7837 109.177C80.7837 110.365 80.5396 111.419 80.0513 112.339C79.5711 113.25 78.9079 113.962 78.0615 114.475C77.2152 114.98 76.2671 115.232 75.2173 115.232C74.672 115.232 74.1471 115.134 73.6426 114.939C73.138 114.744 72.666 114.459 72.2266 114.084V116.758ZM72.2266 110.764C72.2266 111.431 72.3486 112.026 72.5928 112.546C72.8451 113.059 73.2113 113.466 73.6914 113.767C74.1715 114.06 74.7412 114.207 75.4004 114.207C76.4176 114.207 77.1908 113.812 77.7197 113.022C78.2487 112.233 78.5132 111.151 78.5132 109.775C78.5132 108.791 78.3586 107.961 78.0493 107.285C77.7401 106.61 77.3332 106.109 76.8286 105.784C76.3241 105.45 75.7707 105.283 75.1685 105.283C74.2082 105.283 73.2275 105.767 72.2266 106.736V110.764ZM86.2769 111.167C86.2769 111.997 86.3053 112.591 86.3623 112.949C86.4193 113.299 86.5576 113.556 86.7773 113.718C86.9971 113.873 87.3674 113.95 87.8882 113.95C88.1974 113.95 88.5067 113.922 88.8159 113.865C89.1252 113.808 89.3856 113.747 89.5972 113.682L89.6948 114.573C89.2798 114.776 88.8607 114.939 88.4375 115.061C88.0143 115.183 87.5057 115.244 86.9116 115.244C86.1222 115.244 85.52 115.114 85.105 114.854C84.6899 114.593 84.401 114.174 84.2383 113.596C84.0755 113.01 83.9941 112.188 83.9941 111.13V104.941H82.1753V104.514C82.7287 104.294 83.1925 104.038 83.5669 103.745C83.9494 103.444 84.2627 103.135 84.5068 102.817C84.751 102.5 85.0439 102.081 85.3857 101.56C85.5322 101.324 85.6462 101.169 85.7275 101.096C85.8089 101.015 85.8903 100.974 85.9717 100.974C86.0531 100.974 86.1182 101.015 86.167 101.096C86.224 101.169 86.2524 101.287 86.2524 101.45V104.026H89.3164V104.941H86.2769V111.167ZM93.3081 108.579C93.3 108.66 93.2959 108.778 93.2959 108.933C93.2959 109.958 93.479 110.817 93.8452 111.509C94.2196 112.192 94.716 112.701 95.3345 113.035C95.9611 113.36 96.661 113.523 97.4341 113.523C98.4595 113.523 99.4482 113.23 100.4 112.644L100.754 112.986C100.559 113.458 100.229 113.865 99.7656 114.207C99.3099 114.548 98.7891 114.809 98.2031 114.988C97.6253 115.159 97.0638 115.244 96.5186 115.244C95.4932 115.244 94.5695 115.004 93.7476 114.524C92.9338 114.044 92.2949 113.372 91.8311 112.51C91.3753 111.647 91.1475 110.658 91.1475 109.543C91.1475 108.412 91.3957 107.403 91.8921 106.516C92.3885 105.621 93.0477 104.929 93.8696 104.441C94.6997 103.944 95.5868 103.696 96.5308 103.696C97.3039 103.696 97.9997 103.855 98.6182 104.172C99.2448 104.482 99.7534 104.921 100.144 105.491C100.535 106.052 100.783 106.699 100.889 107.432C100.978 107.806 101.023 108.152 101.023 108.469V108.579H93.3081ZM97.7026 107.798C98.0607 107.782 98.3618 107.716 98.606 107.603C98.549 106.634 98.3211 105.877 97.9224 105.332C97.5317 104.787 96.9743 104.514 96.25 104.514C95.721 104.514 95.249 104.673 94.834 104.99C94.4271 105.308 94.0975 105.731 93.8452 106.26C93.5929 106.781 93.4302 107.354 93.3569 107.981L97.7026 107.798Z" fill="white"/>
<path fill-rule="evenodd" clip-rule="evenodd" d="M57.4998 18C53.0551 17.9993 48.7219 19.3103 45.1102 21.7487C41.4986 24.187 38.7902 27.6298 37.3662 31.5926C35.9422 35.5555 35.8744 39.8388 37.1722 43.8398C38.4701 47.8408 41.0682 51.3581 44.6011 53.8967C35.5911 57.69 29.1665 65.36 29.1665 74.6667C29.1665 75.5507 29.5396 76.3986 30.2038 77.0237C30.868 77.6488 31.7689 78 32.7082 78H82.2915C83.2308 78 84.1316 77.6488 84.7958 77.0237C85.46 76.3986 85.8332 75.5507 85.8332 74.6667C85.8332 65.36 79.4086 57.69 70.3986 53.8967C73.9314 51.3581 76.5296 47.8408 77.8274 43.8398C79.1253 39.8388 79.0574 35.5555 77.6335 31.5926C76.2095 27.6298 73.5011 24.187 69.8894 21.7487C66.2777 19.3103 61.9446 17.9993 57.4998 18Z" fill="white"/>
</svg>
