<svg width="133" height="137" viewBox="0 0 133 137" fill="none" xmlns="http://www.w3.org/2000/svg">
<rect width="133" height="137" fill="#191516"/>
<path d="M57.5002 24.3334C49.9857 24.3334 42.779 27.1429 37.4655 32.1438C32.1519 37.1448 29.1668 43.9276 29.1668 51C29.1668 58.0725 32.1519 64.8552 37.4655 69.8562C42.779 74.8572 49.9857 77.6667 57.5002 77.6667C65.0146 77.6667 72.2213 74.8572 77.5349 69.8562C82.8484 64.8552 85.8335 58.0725 85.8335 51C85.8335 43.9276 82.8484 37.1448 77.5349 32.1438C72.2213 27.1429 65.0146 24.3334 57.5002 24.3334ZM22.0835 51C22.0835 32.59 37.9395 17.6667 57.5002 17.6667C77.0608 17.6667 92.9168 32.59 92.9168 51C92.9168 69.41 77.0608 84.3334 57.5002 84.3334C37.9395 84.3334 22.0835 69.41 22.0835 51Z" fill="white"/>
<path d="M57.5002 31C58.4395 31 59.3403 31.3512 60.0045 31.9763C60.6687 32.6014 61.0418 33.4493 61.0418 34.3333V46.88C61.0422 47.4989 61.2256 48.1054 61.5715 48.6318C61.9174 49.1581 62.4122 49.5834 63.0004 49.86L73.25 54.6867C73.6805 54.8739 74.0668 55.1406 74.3858 55.4709C74.7048 55.8013 74.95 56.1886 75.1069 56.6099C75.2639 57.0312 75.3293 57.4778 75.2993 57.9233C75.2693 58.3688 75.1446 58.8042 74.9325 59.2034C74.7204 59.6027 74.4252 59.9578 74.0645 60.2477C73.7038 60.5376 73.2849 60.7563 72.8326 60.8909C72.3804 61.0255 71.9041 61.0733 71.4318 61.0313C70.9596 60.9894 70.5012 60.8585 70.0837 60.6467L59.8306 55.8233C58.0661 54.9927 56.5822 53.7161 55.5451 52.1365C54.5079 50.557 53.9586 48.7368 53.9585 46.88V34.3333C53.9585 33.4493 54.3316 32.6014 54.9958 31.9763C55.66 31.3512 56.5609 31 57.5002 31Z" fill="white"/>
<rect x="15" y="93" width="100" height="32" fill="#191516"/>
<path d="M21.0425 111.887C21.0425 112.489 21.0954 112.933 21.2012 113.218C21.307 113.503 21.4494 113.69 21.6284 113.779C21.8156 113.869 22.1004 113.95 22.4829 114.023C22.9712 114.105 23.3944 114.219 23.7524 114.365L23.728 115H15.8667C15.8586 114.935 15.8504 114.849 15.8423 114.744C15.8341 114.638 15.8301 114.512 15.8301 114.365C16.0579 114.268 16.2655 114.194 16.4526 114.146C16.6479 114.097 16.8717 114.044 17.124 113.987C17.4902 113.914 17.7547 113.828 17.9175 113.73C18.0802 113.633 18.2023 113.442 18.2837 113.157C18.3732 112.864 18.418 112.4 18.418 111.765V102.329C18.418 101.735 18.3691 101.296 18.2715 101.011C18.1738 100.718 18.0355 100.522 17.8564 100.425C17.6774 100.319 17.4007 100.217 17.0264 100.12C16.8555 100.079 16.6642 100.026 16.4526 99.9609C16.241 99.8958 16.0376 99.8185 15.8423 99.729L15.8667 99.1064H23.7158L23.7402 99.7412C23.374 99.904 22.9508 100.034 22.4707 100.132C22.0882 100.213 21.8034 100.307 21.6162 100.413C21.4372 100.51 21.2948 100.706 21.189 100.999C21.0913 101.292 21.0425 101.739 21.0425 102.341V106.309H29.7583V102.219C29.7583 101.666 29.7095 101.255 29.6118 100.986C29.5142 100.718 29.3799 100.535 29.209 100.437C29.0381 100.331 28.7736 100.229 28.4155 100.132C27.9761 100.018 27.5977 99.8836 27.2803 99.729L27.3047 99.1064H34.9585L34.9829 99.7412C34.6248 99.8633 34.279 99.965 33.9453 100.046C33.4977 100.168 33.1763 100.286 32.981 100.4C32.7856 100.514 32.6351 100.722 32.5293 101.023C32.4316 101.324 32.3828 101.792 32.3828 102.427V111.741C32.3828 112.392 32.4276 112.868 32.5171 113.169C32.6066 113.462 32.7409 113.661 32.9199 113.767C33.1071 113.865 33.4123 113.958 33.8354 114.048C34.3075 114.154 34.6899 114.259 34.9829 114.365V115H27.3047L27.2803 114.365C27.4837 114.251 27.6668 114.17 27.8296 114.121C28.0005 114.072 28.2284 114.019 28.5132 113.962C28.8387 113.905 29.0788 113.832 29.2334 113.743C29.3962 113.653 29.5223 113.474 29.6118 113.206C29.7095 112.929 29.7583 112.502 29.7583 111.924V107.371H21.0425V111.887ZM42.5269 103.696C43.6092 103.696 44.5939 103.932 45.481 104.404C46.3761 104.868 47.0841 105.535 47.605 106.406C48.1258 107.269 48.3862 108.274 48.3862 109.421C48.3862 110.569 48.1258 111.586 47.605 112.473C47.0841 113.352 46.3883 114.036 45.5176 114.524C44.6468 115.004 43.6947 115.244 42.6611 115.244C41.6357 115.244 40.6755 114.996 39.7803 114.5C38.8851 114.003 38.1689 113.315 37.6318 112.437C37.0947 111.549 36.8262 110.549 36.8262 109.434C36.8262 108.319 37.0866 107.326 37.6074 106.455C38.1283 105.576 38.8241 104.897 39.6948 104.417C40.5737 103.936 41.5177 103.696 42.5269 103.696ZM42.8198 114.292C43.8534 114.292 44.6387 113.922 45.1758 113.181C45.7129 112.441 45.9814 111.468 45.9814 110.264C45.9814 109.222 45.835 108.266 45.542 107.395C45.2572 106.516 44.8462 105.816 44.3091 105.295C43.772 104.775 43.1535 104.514 42.4536 104.514C41.8351 104.514 41.2858 104.665 40.8057 104.966C40.3337 105.267 39.9593 105.731 39.6826 106.357C39.4059 106.984 39.2676 107.769 39.2676 108.713C39.2676 109.641 39.4141 110.536 39.707 111.399C40 112.253 40.415 112.949 40.9521 113.486C41.4893 114.023 42.1118 114.292 42.8198 114.292ZM54.0869 112.18C54.0869 112.563 54.1276 112.904 54.209 113.206C54.2985 113.499 54.506 113.759 54.8315 113.987C55.1571 114.215 55.6453 114.349 56.2964 114.39L56.2842 115H49.9243C49.9243 114.935 49.9202 114.829 49.9121 114.683C49.9121 114.536 49.9162 114.422 49.9243 114.341L50.3271 114.231C50.7585 114.117 51.0677 114.011 51.2549 113.914C51.4421 113.816 51.5804 113.645 51.6699 113.401C51.7676 113.149 51.8164 112.766 51.8164 112.253V106.113C51.7106 105.934 51.5153 105.771 51.2305 105.625C50.9456 105.47 50.6486 105.344 50.3394 105.247C50.0382 105.149 49.8877 105.104 49.8877 105.112L49.9121 104.685L53.1592 103.818H53.855L54.0503 106.064C54.506 105.226 54.978 104.632 55.4663 104.282C55.9627 103.932 56.5283 103.757 57.1631 103.757C57.4886 103.757 57.7816 103.826 58.042 103.965C58.3105 104.095 58.5181 104.266 58.6646 104.478C58.8192 104.681 58.8965 104.889 58.8965 105.1C58.8965 105.238 58.8558 105.426 58.7744 105.662C58.7012 105.898 58.5832 106.105 58.4204 106.284C58.2658 106.463 58.0745 106.553 57.8467 106.553C57.5863 106.553 57.3828 106.496 57.2363 106.382C57.0898 106.26 56.9393 106.081 56.7847 105.845C56.6707 105.666 56.5609 105.531 56.4551 105.442C56.3574 105.352 56.2313 105.308 56.0767 105.308C55.8162 105.308 55.5802 105.385 55.3687 105.54C55.1652 105.686 54.9862 105.869 54.8315 106.089C54.6769 106.309 54.4897 106.602 54.27 106.968L54.0869 107.273V112.18ZM66.6602 107.566C66.6602 106.956 66.6032 106.439 66.4893 106.016C66.3835 105.592 66.1637 105.251 65.8301 104.99C65.5046 104.73 65.0366 104.6 64.4263 104.6C64.2147 104.6 63.9543 104.644 63.645 104.734C63.3358 104.823 63.0632 104.954 62.8271 105.125C62.5993 105.287 62.4854 105.479 62.4854 105.698C62.4854 105.788 62.5016 105.877 62.5342 105.967C62.5667 106.048 62.6196 106.154 62.6929 106.284C62.7661 106.406 62.819 106.512 62.8516 106.602C62.8841 106.691 62.9004 106.785 62.9004 106.882C62.9004 107.208 62.7946 107.48 62.583 107.7C62.3796 107.912 62.1151 108.018 61.7896 108.018C61.3826 108.018 61.0571 107.867 60.813 107.566C60.577 107.265 60.459 106.903 60.459 106.479C60.459 105.845 60.7072 105.32 61.2036 104.905C61.7 104.49 62.2982 104.185 62.998 103.989C63.7061 103.794 64.3652 103.696 64.9756 103.696C66.123 103.696 66.9775 103.867 67.5391 104.209C68.1087 104.543 68.4831 105.035 68.6621 105.686C68.8493 106.329 68.9429 107.232 68.9429 108.396L68.9185 109.006C68.9103 109.185 68.8981 109.482 68.8818 109.897C68.8737 110.312 68.8696 110.695 68.8696 111.045C68.8696 112.876 69.0609 113.792 69.4434 113.792C69.7201 113.792 70.0781 113.511 70.5176 112.949L71.0303 113.499C70.6722 114.084 70.3182 114.524 69.9683 114.817C69.6183 115.102 69.1585 115.244 68.5889 115.244C68.0518 115.244 67.6082 115.077 67.2583 114.744C66.9165 114.402 66.7293 113.962 66.6968 113.425C66.1759 113.995 65.59 114.443 64.939 114.768C64.2961 115.085 63.6125 115.244 62.8882 115.244C62.3836 115.244 61.9157 115.155 61.4844 114.976C61.0612 114.788 60.7194 114.512 60.459 114.146C60.2067 113.779 60.0806 113.34 60.0806 112.827C60.0806 112.054 60.3776 111.411 60.9717 110.898C61.5658 110.386 62.2493 109.995 63.0225 109.727C63.7956 109.458 64.7396 109.189 65.8545 108.921C65.9521 108.905 66.2207 108.84 66.6602 108.726V107.566ZM66.6602 109.446C66.5381 109.486 66.3835 109.535 66.1963 109.592C65.4964 109.82 64.8983 110.04 64.4019 110.251C63.9054 110.455 63.4619 110.732 63.0713 111.082C62.6807 111.431 62.4854 111.842 62.4854 112.314C62.4854 112.795 62.6156 113.173 62.876 113.45C63.1445 113.726 63.5189 113.865 63.999 113.865C64.4792 113.865 64.943 113.747 65.3906 113.511C65.8382 113.267 66.2614 112.949 66.6602 112.559V109.446ZM74.9243 98.2031C75.3149 98.2031 75.6486 98.3415 75.9253 98.6182C76.202 98.8949 76.3403 99.2285 76.3403 99.6191C76.3403 100.018 76.202 100.356 75.9253 100.632C75.6486 100.901 75.3149 101.035 74.9243 101.035C74.5256 101.035 74.1878 100.901 73.9111 100.632C73.6426 100.356 73.5083 100.018 73.5083 99.6191C73.5083 99.2285 73.6426 98.8949 73.9111 98.6182C74.1878 98.3415 74.5256 98.2031 74.9243 98.2031ZM73.9478 106.125C73.842 105.938 73.6426 105.771 73.3496 105.625C73.0648 105.47 72.7677 105.344 72.4585 105.247C72.1574 105.141 72.0068 105.092 72.0068 105.1L72.0312 104.673L75.4614 103.843L76.2183 103.794V112.314C76.2183 112.599 76.2467 112.868 76.3037 113.12C76.3688 113.372 76.556 113.629 76.8652 113.889C77.1826 114.15 77.679 114.316 78.3545 114.39C78.3545 114.658 78.3504 114.862 78.3423 115H71.9702C71.9539 114.854 71.9458 114.65 71.9458 114.39L72.2876 114.292C72.6457 114.194 72.9346 114.097 73.1543 113.999C73.374 113.901 73.5612 113.759 73.7158 113.572C73.8704 113.376 73.9478 113.116 73.9478 112.791V106.125ZM83.2861 112.18C83.2861 112.563 83.3268 112.904 83.4082 113.206C83.4977 113.499 83.7052 113.759 84.0308 113.987C84.3563 114.215 84.8446 114.349 85.4956 114.39L85.4834 115H79.1235C79.1235 114.935 79.1195 114.829 79.1113 114.683C79.1113 114.536 79.1154 114.422 79.1235 114.341L79.5264 114.231C79.9577 114.117 80.2669 114.011 80.4541 113.914C80.6413 113.816 80.7796 113.645 80.8691 113.401C80.9668 113.149 81.0156 112.766 81.0156 112.253V106.113C80.9098 105.934 80.7145 105.771 80.4297 105.625C80.1449 105.47 79.8478 105.344 79.5386 105.247C79.2375 105.149 79.0869 105.104 79.0869 105.112L79.1113 104.685L82.3584 103.818H83.0542L83.2495 106.064C83.7052 105.226 84.1772 104.632 84.6655 104.282C85.1619 103.932 85.7275 103.757 86.3623 103.757C86.6878 103.757 86.9808 103.826 87.2412 103.965C87.5098 104.095 87.7173 104.266 87.8638 104.478C88.0184 104.681 88.0957 104.889 88.0957 105.1C88.0957 105.238 88.055 105.426 87.9736 105.662C87.9004 105.898 87.7824 106.105 87.6196 106.284C87.465 106.463 87.2738 106.553 87.0459 106.553C86.7855 106.553 86.582 106.496 86.4355 106.382C86.2891 106.26 86.1385 106.081 85.9839 105.845C85.87 105.666 85.7601 105.531 85.6543 105.442C85.5566 105.352 85.4305 105.308 85.2759 105.308C85.0155 105.308 84.7795 105.385 84.5679 105.54C84.3644 105.686 84.1854 105.869 84.0308 106.089C83.8761 106.309 83.689 106.602 83.4692 106.968L83.2861 107.273V112.18ZM91.2085 108.579C91.2004 108.66 91.1963 108.778 91.1963 108.933C91.1963 109.958 91.3794 110.817 91.7456 111.509C92.12 112.192 92.6164 112.701 93.2349 113.035C93.8615 113.36 94.5614 113.523 95.3345 113.523C96.3599 113.523 97.3486 113.23 98.3008 112.644L98.6548 112.986C98.4595 113.458 98.1299 113.865 97.666 114.207C97.2103 114.548 96.6895 114.809 96.1035 114.988C95.5257 115.159 94.9642 115.244 94.4189 115.244C93.3936 115.244 92.4699 115.004 91.6479 114.524C90.8341 114.044 90.1953 113.372 89.7314 112.51C89.2757 111.647 89.0479 110.658 89.0479 109.543C89.0479 108.412 89.2961 107.403 89.7925 106.516C90.2889 105.621 90.9481 104.929 91.77 104.441C92.6001 103.944 93.4871 103.696 94.4312 103.696C95.2043 103.696 95.9001 103.855 96.5186 104.172C97.1452 104.482 97.6538 104.921 98.0444 105.491C98.4351 106.052 98.6833 106.699 98.7891 107.432C98.8786 107.806 98.9233 108.152 98.9233 108.469V108.579H91.2085ZM95.603 107.798C95.9611 107.782 96.2622 107.716 96.5063 107.603C96.4494 106.634 96.2215 105.877 95.8228 105.332C95.4321 104.787 94.8747 104.514 94.1504 104.514C93.6214 104.514 93.1494 104.673 92.7344 104.99C92.3275 105.308 91.9979 105.731 91.7456 106.26C91.4933 106.781 91.3306 107.354 91.2573 107.981L95.603 107.798ZM108.25 107.297C108.136 107.306 107.944 107.31 107.676 107.31C107.44 106.488 107.082 105.816 106.602 105.295C106.13 104.775 105.523 104.514 104.783 104.514C104.27 104.514 103.863 104.64 103.562 104.893C103.269 105.145 103.123 105.511 103.123 105.991C103.123 106.325 103.245 106.634 103.489 106.919C103.733 107.204 104.03 107.456 104.38 107.676C104.738 107.887 105.206 108.14 105.784 108.433C105.922 108.498 106.13 108.604 106.406 108.75C107.318 109.238 107.981 109.739 108.396 110.251C108.819 110.756 109.031 111.375 109.031 112.107C109.031 112.782 108.864 113.356 108.53 113.828C108.197 114.292 107.737 114.646 107.151 114.89C106.565 115.126 105.894 115.244 105.137 115.244C104.469 115.244 103.794 115.163 103.11 115C102.427 114.845 101.865 114.634 101.426 114.365V111.387C101.743 111.346 101.959 111.326 102.073 111.326C102.26 112.229 102.59 112.965 103.062 113.535C103.542 114.105 104.197 114.39 105.027 114.39C105.621 114.39 106.113 114.243 106.504 113.95C106.903 113.649 107.102 113.254 107.102 112.766C107.102 112.457 107.013 112.184 106.833 111.948C106.654 111.712 106.423 111.505 106.138 111.326C105.853 111.147 105.426 110.907 104.856 110.605C104.091 110.199 103.509 109.869 103.11 109.617C102.492 109.234 102.024 108.807 101.707 108.335C101.397 107.863 101.243 107.301 101.243 106.65C101.243 106.024 101.401 105.491 101.719 105.051C102.036 104.604 102.467 104.266 103.013 104.038C103.558 103.81 104.172 103.696 104.856 103.696C105.483 103.696 106.077 103.774 106.638 103.928C107.208 104.083 107.721 104.303 108.176 104.587L108.25 107.297Z" fill="white"/>
</svg>
