<svg width="156" height="135" viewBox="0 0 156 135" fill="none" xmlns="http://www.w3.org/2000/svg">
<rect width="156" height="135" fill="#191516"/>
<path fill-rule="evenodd" clip-rule="evenodd" d="M74.7802 25.0968C76.0944 24.0863 77.7686 23.5308 79.5 23.5308C81.2313 23.5308 82.9055 24.0863 84.2197 25.0968L107.188 42.7443L116.203 49.2118C116.575 49.4785 116.884 49.8083 117.114 50.1823C117.344 50.5563 117.489 50.9672 117.541 51.3915C117.594 51.8158 117.553 52.2453 117.42 52.6553C117.287 53.0653 117.066 53.4479 116.769 53.7813C116.471 54.1146 116.103 54.3921 115.686 54.598C115.269 54.8039 114.811 54.934 114.337 54.9811C113.864 55.0282 113.385 54.9913 112.928 54.8724C112.47 54.7535 112.044 54.555 111.672 54.2883L108.5 52.0133V77.75C108.5 79.4739 107.736 81.1272 106.376 82.3462C105.017 83.5652 103.173 84.25 101.25 84.25H86.75V68C86.75 66.2761 85.9861 64.6228 84.6265 63.4038C83.2668 62.1848 81.4228 61.5 79.5 61.5C77.5771 61.5 75.7331 62.1848 74.3734 63.4038C73.0138 64.6228 72.25 66.2761 72.25 68V84.25H57.75C55.8271 84.25 53.9831 83.5652 52.6234 82.3462C51.2638 81.1272 50.5 79.4739 50.5 77.75V52.01L47.3281 54.285C46.9588 54.5677 46.53 54.781 46.067 54.9122C45.604 55.0435 45.1163 55.09 44.6329 55.049C44.1495 55.0081 43.6802 54.8804 43.2529 54.6737C42.8255 54.467 42.4489 54.1854 42.1452 53.8457C41.8416 53.506 41.6172 53.115 41.4853 52.696C41.3535 52.2771 41.3169 51.8386 41.3776 51.4067C41.4384 50.9748 41.5953 50.5582 41.8391 50.1817C42.0829 49.8052 42.4086 49.4765 42.7968 49.215L51.8122 42.7475L74.7802 25.0968Z" fill="white"/>
<rect x="41" y="94" width="102" height="26" fill="#191516"/>
<path d="M45.834 108.506L45.6021 109.092C45.2358 110.044 44.9469 110.829 44.7354 111.448C44.5238 112.058 44.418 112.53 44.418 112.864C44.418 113.157 44.5238 113.397 44.7354 113.584C44.9551 113.771 45.2033 113.91 45.48 113.999C45.7648 114.089 46.1107 114.174 46.5176 114.255L46.7495 114.304V115H40.9878V114.365C41.1017 114.276 41.2157 114.202 41.3296 114.146C41.4517 114.08 41.6022 114.011 41.7812 113.938C42.0661 113.824 42.2939 113.706 42.4648 113.584C42.6439 113.462 42.8026 113.271 42.9409 113.01C43.0223 112.847 43.1037 112.664 43.1851 112.461C43.2746 112.249 43.3315 112.111 43.356 112.046L43.5024 111.667L48.0679 99.9731C48.1004 99.8836 48.1248 99.729 48.1411 99.5093C48.1493 99.3465 48.1615 99.2163 48.1777 99.1187C48.2021 99.0129 48.2428 98.9193 48.2998 98.8379C48.6986 98.8379 49.0404 98.8786 49.3252 98.96C49.6182 99.0413 49.9111 99.1919 50.2041 99.4116L55.8071 112.852C55.9129 113.104 56.035 113.307 56.1733 113.462C56.3117 113.608 56.4541 113.722 56.6006 113.804C56.7552 113.877 56.9627 113.966 57.2231 114.072C57.4429 114.146 57.6748 114.243 57.9189 114.365L57.8945 115H50.79L50.7656 114.365C51.1481 114.251 51.4736 114.137 51.7422 114.023C52.0189 113.91 52.2671 113.751 52.4868 113.547C52.7065 113.344 52.8164 113.096 52.8164 112.803C52.8164 112.477 52.4095 111.269 51.5957 109.177C51.5469 109.055 51.498 108.937 51.4492 108.823C51.4085 108.709 51.3719 108.604 51.3394 108.506H45.834ZM48.4829 101.426L46.249 107.432H50.8877L48.4829 101.426ZM68.5269 112.705C68.356 113.25 68.0508 113.714 67.6113 114.097C67.1719 114.479 66.6551 114.768 66.061 114.963C65.467 115.151 64.8485 115.244 64.2056 115.244C63.0825 115.244 62.11 114.984 61.2881 114.463C60.4743 113.934 59.8558 113.234 59.4326 112.363C59.0094 111.493 58.7979 110.549 58.7979 109.531C58.7979 108.457 59.0542 107.476 59.5669 106.589C60.0796 105.694 60.7998 104.99 61.7275 104.478C62.6553 103.957 63.7091 103.696 64.8892 103.696C65.5728 103.696 66.1994 103.798 66.769 104.001C67.3387 104.197 67.7863 104.478 68.1118 104.844C68.4455 105.21 68.6123 105.633 68.6123 106.113C68.6123 106.479 68.4943 106.748 68.2583 106.919C68.0223 107.082 67.77 107.163 67.5015 107.163C67.2492 107.163 67.0539 107.118 66.9155 107.029C66.7772 106.931 66.6755 106.817 66.6104 106.687C66.5534 106.549 66.4964 106.357 66.4395 106.113C66.3743 105.804 66.293 105.552 66.1953 105.356C66.1058 105.161 65.9349 104.99 65.6826 104.844C65.4303 104.697 65.0682 104.616 64.5962 104.6C63.9696 104.575 63.3836 104.73 62.8384 105.063C62.2931 105.389 61.8537 105.877 61.52 106.528C61.1945 107.179 61.0317 107.961 61.0317 108.872C61.0317 109.718 61.1823 110.496 61.4834 111.204C61.7845 111.912 62.224 112.477 62.8018 112.9C63.3877 113.324 64.0876 113.535 64.9014 113.535C65.6094 113.535 66.1994 113.45 66.6714 113.279C67.1434 113.108 67.6317 112.823 68.1362 112.424L68.5269 112.705ZM80.4897 112.705C80.3188 113.25 80.0137 113.714 79.5742 114.097C79.1348 114.479 78.618 114.768 78.0239 114.963C77.4299 115.151 76.8114 115.244 76.1685 115.244C75.0454 115.244 74.0729 114.984 73.251 114.463C72.4372 113.934 71.8187 113.234 71.3955 112.363C70.9723 111.493 70.7607 110.549 70.7607 109.531C70.7607 108.457 71.0171 107.476 71.5298 106.589C72.0425 105.694 72.7627 104.99 73.6904 104.478C74.6182 103.957 75.672 103.696 76.8521 103.696C77.5356 103.696 78.1623 103.798 78.7319 104.001C79.3016 104.197 79.7492 104.478 80.0747 104.844C80.4084 105.21 80.5752 105.633 80.5752 106.113C80.5752 106.479 80.4572 106.748 80.2212 106.919C79.9852 107.082 79.7329 107.163 79.4644 107.163C79.2121 107.163 79.0168 107.118 78.8784 107.029C78.7401 106.931 78.6383 106.817 78.5732 106.687C78.5163 106.549 78.4593 106.357 78.4023 106.113C78.3372 105.804 78.2559 105.552 78.1582 105.356C78.0687 105.161 77.8978 104.99 77.6455 104.844C77.3932 104.697 77.0311 104.616 76.5591 104.6C75.9325 104.575 75.3465 104.73 74.8013 105.063C74.256 105.389 73.8166 105.877 73.4829 106.528C73.1574 107.179 72.9946 107.961 72.9946 108.872C72.9946 109.718 73.1452 110.496 73.4463 111.204C73.7474 111.912 74.1868 112.477 74.7646 112.9C75.3506 113.324 76.0505 113.535 76.8643 113.535C77.5723 113.535 78.1623 113.45 78.6343 113.279C79.1063 113.108 79.5946 112.823 80.0991 112.424L80.4897 112.705ZM87.5088 115.244C86.5241 115.244 85.7632 115 85.2261 114.512C84.6971 114.015 84.339 113.372 84.1519 112.583C83.9647 111.794 83.8711 110.854 83.8711 109.763V106.125C83.7653 105.938 83.5659 105.771 83.2729 105.625C82.9881 105.47 82.6911 105.344 82.3818 105.247C82.0807 105.141 81.9302 105.092 81.9302 105.1L81.9546 104.673L85.3848 103.843L86.1416 103.794V109.629C86.1416 110.671 86.2067 111.493 86.3369 112.095C86.4671 112.689 86.6868 113.124 86.9961 113.401C87.3053 113.669 87.7367 113.804 88.29 113.804C89.4212 113.804 90.4873 113.307 91.4883 112.314V106.125C91.3825 105.938 91.1831 105.771 90.8901 105.625C90.6053 105.47 90.3083 105.344 89.999 105.247C89.6979 105.141 89.5474 105.092 89.5474 105.1L89.5718 104.673L93.002 103.843L93.7588 103.794V112.546C93.7588 112.888 93.8442 113.153 94.0151 113.34C94.186 113.519 94.3976 113.649 94.6499 113.73C94.9022 113.812 95.248 113.889 95.6875 113.962C95.6875 114.084 95.6794 114.211 95.6631 114.341C95.6549 114.471 95.6509 114.561 95.6509 114.609L91.647 115.183L91.5493 113.23C90.3449 114.573 88.998 115.244 87.5088 115.244ZM99.2397 108.579C99.2316 108.66 99.2275 108.778 99.2275 108.933C99.2275 109.958 99.4106 110.817 99.7769 111.509C100.151 112.192 100.648 112.701 101.266 113.035C101.893 113.36 102.593 113.523 103.366 113.523C104.391 113.523 105.38 113.23 106.332 112.644L106.686 112.986C106.491 113.458 106.161 113.865 105.697 114.207C105.242 114.548 104.721 114.809 104.135 114.988C103.557 115.159 102.995 115.244 102.45 115.244C101.425 115.244 100.501 115.004 99.6792 114.524C98.8654 114.044 98.2266 113.372 97.7627 112.51C97.307 111.647 97.0791 110.658 97.0791 109.543C97.0791 108.412 97.3273 107.403 97.8237 106.516C98.3201 105.621 98.9793 104.929 99.8013 104.441C100.631 103.944 101.518 103.696 102.462 103.696C103.236 103.696 103.931 103.855 104.55 104.172C105.176 104.482 105.685 104.921 106.076 105.491C106.466 106.052 106.715 106.699 106.82 107.432C106.91 107.806 106.955 108.152 106.955 108.469V108.579H99.2397ZM103.634 107.798C103.992 107.782 104.293 107.716 104.538 107.603C104.481 106.634 104.253 105.877 103.854 105.332C103.463 104.787 102.906 104.514 102.182 104.514C101.653 104.514 101.181 104.673 100.766 104.99C100.359 105.308 100.029 105.731 99.7769 106.26C99.5246 106.781 99.3618 107.354 99.2886 107.981L103.634 107.798ZM111.422 98.2031C111.813 98.2031 112.147 98.3415 112.423 98.6182C112.7 98.8949 112.838 99.2285 112.838 99.6191C112.838 100.018 112.7 100.356 112.423 100.632C112.147 100.901 111.813 101.035 111.422 101.035C111.024 101.035 110.686 100.901 110.409 100.632C110.141 100.356 110.006 100.018 110.006 99.6191C110.006 99.2285 110.141 98.8949 110.409 98.6182C110.686 98.3415 111.024 98.2031 111.422 98.2031ZM110.446 106.125C110.34 105.938 110.141 105.771 109.848 105.625C109.563 105.47 109.266 105.344 108.957 105.247C108.655 105.141 108.505 105.092 108.505 105.1L108.529 104.673L111.959 103.843L112.716 103.794V112.314C112.716 112.599 112.745 112.868 112.802 113.12C112.867 113.372 113.054 113.629 113.363 113.889C113.681 114.15 114.177 114.316 114.853 114.39C114.853 114.658 114.848 114.862 114.84 115H108.468C108.452 114.854 108.444 114.65 108.444 114.39L108.786 114.292C109.144 114.194 109.433 114.097 109.652 113.999C109.872 113.901 110.059 113.759 110.214 113.572C110.368 113.376 110.446 113.116 110.446 112.791V106.125ZM119.882 112.144C119.882 112.827 120.02 113.356 120.297 113.73C120.582 114.097 121.05 114.316 121.701 114.39C121.701 114.512 121.697 114.634 121.688 114.756C121.68 114.878 121.676 114.959 121.676 115H115.67L115.658 114.39C115.731 114.341 115.825 114.296 115.939 114.255C116.061 114.215 116.183 114.178 116.305 114.146C116.663 114.048 116.944 113.942 117.147 113.828C117.351 113.706 117.473 113.527 117.514 113.291C117.579 112.941 117.611 112.583 117.611 112.217L117.599 100.73C117.501 100.567 117.302 100.409 117.001 100.254C116.708 100.091 116.419 99.9569 116.134 99.8511C115.849 99.7371 115.666 99.668 115.585 99.6436L115.609 99.2163L119.003 98.2886L119.882 98.2031V112.144Z" fill="white"/>
</svg>
